# xmcd CD database file
#
# Track frame offsets:
#	150
#	17657
#	35400
#	49085
#	69992
#	86995
#	101617
#	117855
#	133905
#
# Disc length: 2039 seconds
#
# Revision: 1
# Processed by: cddbd v1.5.2PL0 Copyright (c) Steve Scherf et al.
# Submitted via: CDex 1.70beta3
#
DISCID=7707f509
DTITLE=Sayo Kurihara - Sunset Jazz Wave
DYEAR=2009
DGENRE=Jazz
TTITLE0=You'd Be So Nice to Come Home to
TTITLE1=Lullaby of Birdland
TTITLE2=No Woman No Cry
TTITLE3=Sentimental Journey
TTITLE4=Am I Blue?
TTITLE5=Call Me
TTITLE6=Killing Me Softly with His Song
TTITLE7=Just in Time
TTITLE8=The Rose
EXTD=YEAR: 2009
EXTT0=
EXTT1=
EXTT2=
EXTT3=
EXTT4=
EXTT5=
EXTT6=
EXTT7=
EXTT8=
PLAYORDER=
